<svg xmlns:dc="http://purl.org/dc/elements/1.1/" xmlns:cc="http://creativecommons.org/ns#" xmlns:rdf="http://www.w3.org/1999/02/22-rdf-syntax-ns#" xmlns:svg="http://www.w3.org/2000/svg" xmlns="http://www.w3.org/2000/svg" xmlns:sodipodi="http://sodipodi.sourceforge.net/DTD/sodipodi-0.dtd" xmlns:inkscape="http://www.inkscape.org/namespaces/inkscape" width="781.73633pt" height="150.72624pt" viewBox="0 0 781.73633 150.72624" preserveAspectRatio="xMidYMid meet" id="svg859" sodipodi:docname="easypay.svg" inkscape:version="0.92.4 (5da689c313, 2019-01-14)"><metadata></metadata><defs id="defs863"></defs><path style="fill:#0d71fa;fill-opacity:1;stroke:none;stroke-width:0.1" inkscape:connector-curvature="0" id="path841" d="m 45.5,0.726248 c -26.7,3.6 -45.5,25.3 -45.5,52.5 0,15 5.1,27.7 15.3,37.7 5.9,5.8 16.6,11.900002 23.5,13.300002 l 3.2,0.7 V 93.826248 c 0,-6.1 -0.4,-11.1 -0.9,-11.1 -0.4,0 -2.9,-1.9 -5.5,-4.1 -5,-4.4 -9,-11.2 -10.1,-17.2 l -0.7,-3.7 40.3,-0.2 40.4,-0.3 -0.3,-7.5 c -0.4,-12.9 -4.5,-23.5 -12.3,-32.4 -11.1,-12.6 -29.4,-19 -47.4,-16.6 z m 20.5,22.8 c 4.8,2.5 12,10.5 12,13.3 0,0.5 -11,0.9 -25,0.9 -20.4,0 -25,-0.2 -25,-1.4 0,-2.6 8.4,-10.9 13.5,-13.2 7.4,-3.5 17.5,-3.4 24.5,0.4 z"></path><path style="fill:#0d71fa;fill-opacity:1;stroke:none;stroke-width:0.1" inkscape:connector-curvature="0" id="path843" d="m 262.6,0.826248 c -12,1.8 -21.6,8.2 -26.2,17.5 -2.1,4.3 -2.6,6.8 -2.6,12.9 0,10.1 3.3,16.3 11.9,22.1 5.6,3.8 9.1,5.4 25.6,11.4 11,4.1 14.6,10.1 9.7,16.2 -5.6,7.2 -21.7,5.1 -32.4,-4.2 l -3.4,-3 -7.1,8.7 -7.2,8.8 3.3,2.8 c 4.6,3.9 14,8.300002 21.8,10.300002 9.9,2.5 26.7,1.6 34,-1.8 12.4,-5.600002 18.2,-14.500002 18.3,-27.600002 0.1,-16.9 -7.7,-25.3 -30.3,-32.7 -15.1,-4.9 -19,-7.7 -19,-13.5 0,-5.8 3.6,-8.5 11.3,-8.4 6.6,0 10.4,1.5 16.8,6.5 l 3.7,2.9 7.1,-7.6 c 6.9,-7.3 7.1,-7.8 5.5,-9.6 -7.8,-8.6 -26.3,-13.9 -40.8,-11.7 z"></path><path style="fill:#545460;fill-opacity:1;stroke:none;stroke-width:0.1" inkscape:connector-curvature="0" id="path845" d="m 495.5,0.426248 c -6.3,0.8 -15.2,4.5 -20.2,8.2 -2.8,2.2 -5.4,3.7 -5.7,3.4 -0.3,-0.4 -0.6,-2.8 -0.6,-5.5 v -4.8 H 456.5 444 v 74.5 74.500002 h 12.5 12.5 v -27.8 c 0,-15.3 0.3,-28.100002 0.6,-28.500002 0.3,-0.3 2.5,0.9 4.8,2.7 14.9,11.300002 37.4,12.000002 53.6,1.6 5.5,-3.6 12.9,-11.1 16.4,-16.7 7.8,-12.6 9.9,-31.1 5.2,-45.8 -7.6,-23.9 -30.3,-39 -54.1,-35.8 z m 11.8,24.9 c 6.4,2.2 13.9,9.1 16.8,15.6 3.1,7.1 3.2,17.4 0.3,23.9 -6.4,14 -21.1,20.7 -35.9,16.5 -7.5,-2.3 -16.3,-10.6 -18.8,-18 -6.6,-19.3 7.4,-39.4 27.4,-39.6 3,0 7.6,0.7 10.2,1.6 z"></path><path style="fill:#0d71fa;fill-opacity:1;stroke:none;stroke-width:0.1" inkscape:connector-curvature="0" id="path847" d="m 131,12.026248 v 10.5 l 21.8,0.4 c 24.3,0.4 27.6,1.1 31.2,7 1.1,1.8 2,5 2,7 v 3.8 h -27.9 -27.9 l -4.1,9.9 c -5.1,12.5 -6.5,18.8 -5.7,26.5 1.2,11.8 7.4,20.3 18.6,25.500002 4.4,2 7.4,2.6 15.5,2.9 12.7,0.5 19.4,-1.7 27.1,-9.000002 5.8,-5.4 6.4,-5.1 6.4,2.8 v 4.400002 h 11.5 11.6 l -0.3,-38.300002 c -0.3,-37.7 -0.3,-38.3 -2.7,-43.4 -2.7,-6.1 -9.3,-12.6 -15.4,-15.2 -7.7,-3.3 -15,-4.2 -38.4,-4.8 l -23.3,-0.6 z m 55.6,52.5 c 0.1,5.3 -0.3,6.9 -2.8,10.7 -6.9,10.4 -20.5,14.3 -30.9,9 -6.4,-3.4 -8.1,-12.5 -4,-21.8 l 2,-4.7 17.8,0.2 17.8,0.3 z"></path><path style="fill:#0d71fa;fill-opacity:1;stroke:none;stroke-width:0.1" inkscape:connector-curvature="0" id="path849" d="m 320.9,10.926248 c 14.1,33.8 37.4,91.500002 37.4,92.400002 0,0.8 -12.2,32.7 -17,44.2 l -1.3,3.2 h 13.3 13.2 l 28.4,-71.300002 c 15.7,-39.1 29,-72.7 29.8,-74.5 l 1.4,-3.3 -13.8,0.3 -13.7,0.3 -12.8,34.4 c -7,18.9 -13,34.6 -13.3,34.9 -0.3,0.3 -0.7,0.3 -0.9,0.1 -0.2,-0.2 -6.1,-15.9 -13.3,-34.9 l -12.9,-34.5 -14.1,-0.3 -14.2,-0.3 z"></path><path style="fill:#545460;fill-opacity:1;stroke:none;stroke-width:0.1" inkscape:connector-curvature="0" id="path851" d="m 577,12.026248 v 10.5 l 21.8,0.4 c 19.7,0.3 22.1,0.5 26.5,2.5 5.2,2.4 7.7,6.4 7.7,12.3 v 3 h -28 -27.9 l -2.2,4.7 c -7.6,17.1 -9.5,28.2 -6.5,38.5 6.6,22.900002 43.8,30.100002 61.3,11.9 l 4,-4.2 0.6,3.8 c 0.4,2.1 0.7,5.000002 0.7,6.500002 v 2.8 h 11.5 11.6 l -0.3,-38.800002 c -0.3,-38.2 -0.3,-38.8 -2.7,-43.9 -2.6,-5.9 -9.3,-12.7 -14.9,-15 -8.6,-3.7 -14.7,-4.5 -38.9,-5 l -24.3,-0.5 z m 56,53.1 c 0,7.2 -0.1,7.4 -4.1,12 -5.8,6.6 -10.9,9 -19,9.1 -12.2,0 -18.4,-6.9 -15.9,-18 0.6,-2.6 1.7,-6 2.6,-7.6 l 1.5,-2.9 h 17.4 17.5 z"></path><path style="fill:#545460;fill-opacity:1;stroke:none;stroke-width:0.1" inkscape:connector-curvature="0" id="path853" d="m 673.3,2.426248 c 1.1,1.8 41,99.900002 41,100.800002 0,0.9 -2.6,7.7 -16.4,42.8 l -1.9,4.7 h 13.3 13.4 l 29.2,-73.200002 c 16.1,-40.3 29.6,-73.9 29.8,-74.6 0.4,-1 -2.4,-1.2 -13.3,-1 l -13.7,0.3 -13,34.7 c -7.1,19.1 -13.3,34.6 -13.6,34.3 -0.4,-0.2 -6.6,-16 -13.7,-35 l -12.9,-34.5 h -14.3 c -7.9,0 -14.1,0.3 -13.9,0.7 z"></path><path style="fill:#f82dd4;fill-opacity:1;stroke:none;stroke-width:0.1" inkscape:connector-curvature="0" id="path855" d="m 71,76.526248 c -1.9,0.9 -4.5,3.3 -5.8,5.2 -2,2.9 -2.3,4.4 -2,9.4 0.4,5.4 0.8,6.2 4.6,9.700002 3.7,3.5 4.6,3.9 9.5,3.9 9.7,0 16.2,-6.800002 15.4,-16.100002 -0.9,-10.9 -11.9,-17.1 -21.7,-12.1 z"></path></svg>